<?xml version="1.0" encoding="utf-8"?>

<!DOCTYPE svg PUBLIC "-//W3C//DTD SVG 1.1//EN" "http://www.w3.org/Graphics/SVG/1.1/DTD/svg11.dtd">
<!-- Uploaded to: SVG Repo, www.svgrepo.com, Generator: SVG Repo Mixer Tools -->
<svg height="800px" width="800px" version="1.1" id="_x32_" xmlns="http://www.w3.org/2000/svg" xmlns:xlink="http://www.w3.org/1999/xlink" 
	 viewBox="0 0 512 512"  xml:space="preserve">
<style type="text/css">
	.st0{fill:#000000;}
</style>
<g>
	<polygon class="st0" points="96.388,197.393 97.009,203.262 159.896,196.556 159.268,190.688 	"/>
	<path class="st0" d="M155.486,111.05c-8.683,0-15.734,7.052-15.734,15.727c0,8.69,7.052,15.734,15.734,15.734
		s15.72-7.044,15.72-15.734C171.206,118.101,164.169,111.05,155.486,111.05z"/>
	<polygon class="st0" points="97.515,171.836 161.953,176.924 162.408,171.042 97.969,165.968 	"/>
	<polygon class="st0" points="272.209,42.238 258.943,59.935 281.057,64.352 	"/>
	<polygon class="st0" points="143.93,42.238 135.082,64.352 157.203,59.935 	"/>
	<path class="st0" d="M276.395,126.776c0-8.675-7.044-15.727-15.734-15.727c-8.682,0-15.728,7.052-15.728,15.727
		c0,8.69,7.045,15.734,15.728,15.734C269.351,142.511,276.395,135.466,276.395,126.776z"/>
	<polygon class="st0" points="319.758,197.393 256.879,190.688 256.25,196.556 319.137,203.262 	"/>
	<polygon class="st0" points="318.163,165.968 253.745,171.042 254.207,176.924 318.625,171.836 	"/>
	<path class="st0" d="M242.4,203.637c-4.475,1.076-8.257,1.523-11.404,1.523c-4.171,0-7.196-0.78-9.455-1.913
		c-3.349-1.71-5.298-4.273-6.64-7.578c-1.299-3.27-1.776-7.196-1.776-10.732c0-2.216,0.195-4.165,0.39-5.788l9.382-9.376
		c1.732-1.718,2.245-4.323,1.314-6.582c-0.938-2.252-3.14-3.717-5.572-3.717h-21.132c-2.498,0-4.736,1.53-5.623,3.868
		c-0.902,2.331-0.267,4.958,1.581,6.64l9.022,8.17c0.259,1.74,0.519,4.107,0.519,6.799c0.022,4.721-0.866,10.098-3.335,13.779
		c-1.256,1.862-2.814,3.37-5.081,4.518c-2.252,1.133-5.269,1.913-9.44,1.913c-3.147,0-6.929-0.447-11.404-1.53
		c-2.425-0.57-4.879,0.931-5.456,3.356c-0.57,2.425,0.931,4.879,3.363,5.464c5.024,1.191,9.484,1.754,13.497,1.761
		c5.298,0,9.802-1.018,13.526-2.887c4.359-2.187,7.405-5.529,9.448-9.16l0.801,1.56c1.992,3.009,4.836,5.731,8.545,7.6
		c3.724,1.869,8.236,2.887,13.526,2.887c4.006,0,8.474-0.57,13.505-1.768c2.432-0.592,3.926-3.032,3.341-5.457
		C247.265,204.561,244.825,203.059,242.4,203.637z"/>
	<path class="st0" d="M435.895,246.307c0.657-0.678,1.624-1.306,2.31-1.646l0.404-0.188l21.436-7.145l-2.743-5.492
		c7.716-9.448,10.978-22.324,7.651-34.861c-4.54-17.178-20.116-29.181-37.878-29.181c-3.385,0-6.756,0.44-10.047,1.299l-0.289,0.086
		l-0.281,0.087c-11.043,3.211-21.776,9.116-31.159,17.091c-8.863,7.607-15.886,16.701-20.952,27.08
		c-5.94,12.118-9.079,26.301-9.058,40.974c0.008,18.527,4.604,38.087,14.053,59.747c4.503,10.372,6.799,21.66,6.799,33.583
		c0.043,16.037-4.338,32.572-11.924,45.629c-2.367-7.744-5.55-15.128-9.491-22.021c-18.513-32.414-41.891-82.374-53.33-107.354
		c27.917-11.57,47.751-29.808,59.105-54.398c32.226-69.844-9.982-128.408-40.014-152.644C293.385,0.007,276.727,0.007,269.509,0
		h-0.007c-1.314,0-2.627,0.109-3.919,0.325c-11.7,1.956-26.561,13.944-44.23,35.684H208.91h-12.457
		c-17.668-21.739-32.522-33.728-44.23-35.684C150.939,0.109,149.625,0,148.304,0h-0.086c-7.261,0-23.898,0.231-50.891,56.954
		C67.295,81.191,25.093,139.769,57.32,209.598c10.949,23.724,29.801,41.552,56.188,53.179
		c-8.834,21.747-30.775,74.226-50.422,108.581c-19.018,33.28-19.538,78.52-1.256,110.01C73.119,500.841,90.527,512,109.582,512
		h93.901h10.87h93.9c14.645,0,28.148-6.46,38.83-18.404c14.039-1.56,27.897-6.359,40.563-14.103
		c20.202-12.372,37.236-31.7,49.289-55.915c11.526-23.305,17.611-49.512,17.625-75.82c0.008-22.764-4.482-44.605-13.338-64.93
		c-6.214-14.255-7.514-23.328-7.506-28.43c0.007-4.272,0.816-5.961,1.162-6.684L435.895,246.307z M432.402,225.881l-0.419,0.13
		c-0.491,0.188-1.371,0.52-2.461,1.075c-2.201,1.083-5.153,2.944-7.715,5.594c-1.711,1.768-3.291,3.876-4.598,6.546
		c-1.718,3.573-3.082,8.206-3.103,15.157c-0.008,8.38,2.166,20.267,9.144,36.282c8.127,18.651,11.714,38.167,11.707,57.077
		c-0.015,24.041-5.709,47.145-15.575,67.109c-9.917,19.92-23.999,36.918-41.964,47.925c-11.916,7.275-25.738,11.765-40.353,11.779
		c-7.232,10.87-17.135,17.842-28.813,17.842c-27.21,0-73.084,0-93.9,0c0,0-4.128,0-10.87,0c-20.823,0-66.691,0-93.901,0
		c-36.016,0-55.662-65.478-29.469-111.317c26.192-45.838,55.654-121.147,55.654-121.147l2.729-8.92
		c-25.76-7.55-50.61-21.97-63.37-49.635c-35.951-77.885,37.928-131.792,37.928-131.792s23.075-49.982,35.25-49.982l0.7,0.065
		c11.981,1.992,37.936,35.943,37.936,35.943h21.97h21.956c0,0,25.969-33.951,37.95-35.943l0.692-0.065
		c12.184,0.007,35.244,49.982,35.244,49.982s73.893,53.908,37.943,131.792c-13.453,29.159-40.331,43.572-67.549,50.776l1.408,4.504
		c0,0,34.969,78.585,61.154,124.423c8.286,14.493,11.974,30.935,12.024,46.662l-0.916,5.406c2.722-0.975,5.442-2.187,8.207-3.862
		c6.726-4.085,13.41-10.386,19.234-18.491c11.707-16.182,19.552-39.394,19.488-63.053c0-13.988-2.642-28.12-8.438-41.407
		c-8.596-19.726-12.399-36.86-12.407-51.952c-0.022-12.429,2.685-23.407,7.066-32.357c4.374-8.957,10.278-15.792,16.03-20.729
		c11.613-9.873,22.331-12.731,24.049-13.237c1.682-0.447,3.364-0.664,5.031-0.664c8.675,0,16.614,5.802,18.932,14.601
		c2.743,10.343-3.349,20.931-13.62,23.854L432.402,225.881z"/>
</g>
</svg>